<?xml version="1.0" encoding="UTF-8" standalone="no"?>
<svg
   height="16"
   viewBox="0 0 16 16"
   width="16"
   version="1.1"
   id="svg1"
   sodipodi:docname="KeyboardPhysical.svg"
   inkscape:version="1.3.1 (91b66b0783, 2023-11-16)"
   xmlns:inkscape="http://www.inkscape.org/namespaces/inkscape"
   xmlns:sodipodi="http://sodipodi.sourceforge.net/DTD/sodipodi-0.dtd"
   xmlns="http://www.w3.org/2000/svg"
   xmlns:svg="http://www.w3.org/2000/svg">
  <defs
     id="defs1" />
  <sodipodi:namedview
     id="namedview1"
     pagecolor="#ffffff"
     bordercolor="#000000"
     borderopacity="0.25"
     inkscape:showpageshadow="2"
     inkscape:pageopacity="0.0"
     inkscape:pagecheckerboard="true"
     inkscape:deskcolor="#d1d1d1"
     inkscape:zoom="51.9375"
     inkscape:cx="7.6438026"
     inkscape:cy="6.5174489"
     inkscape:window-width="1920"
     inkscape:window-height="1027"
     inkscape:window-x="1272"
     inkscape:window-y="-8"
     inkscape:window-maximized="1"
     inkscape:current-layer="svg1" />
  <path
     fill="#e0e0e0"
     d="M 4,2 C 3.4477153,2 3,2.4477153 3,3 v 9 c 0,0.552285 0.4477153,1 1,1 h 8 c 0.552285,0 1,-0.447715 1,-1 V 3 C 13,2.4477153 12.552285,2 12,2 Z M 1,4 v 9 c 0,1.104569 0.8954305,2 2,2 h 10 c 1.104569,0 2,-0.895431 2,-2 V 4 h -1 v 9 c 0,0.552285 -0.447715,1 -1,1 H 3 C 2.4477153,14 2,13.552285 2,13 V 4 Z"
     id="path1"
     inkscape:label="path1"
     sodipodi:nodetypes="ssssssssscssssccsssscc"
     style="fill:#ffffff;fill-opacity:1" />
</svg>
